<?xml version="1.0" encoding="utf-8"?>
<!-- Generator: Adobe Illustrator 16.0.4, SVG Export Plug-In . SVG Version: 6.00 Build 0)  -->
<!DOCTYPE svg PUBLIC "-//W3C//DTD SVG 1.1//EN" "http://www.w3.org/Graphics/SVG/1.1/DTD/svg11.dtd">
<svg version="1.1" id="Layer_1" xmlns="http://www.w3.org/2000/svg" xmlns:xlink="http://www.w3.org/1999/xlink" x="0px" y="0px"
	 width="500px" height="500px" viewBox="0 0 500 500" enable-background="new 0 0 500 500" xml:space="preserve">
<polygon fill="#27AAE1" points="59.242,316.667 115.128,223.524 171.012,316.667 "/>
<g>
	<path fill="#1C75BC" d="M285.308,226.91c0.273-0.477,0.947-0.868,1.497-0.868h65.743c0.55,0,0.786,0.396,0.525,0.88l-47.862,88.864
		c-0.261,0.484-0.925,0.881-1.475,0.881h-68.814c-0.55,0-0.776-0.391-0.503-0.868L285.308,226.91z"/>
</g>
<polygon fill="#27AAE1" points="204.243,155.556 155.908,155.556 134.763,190.799 210.284,316.667 300.909,316.667 "/>
<polygon fill="#27AAE1" points="353.058,226.042 287.807,226.042 342.182,316.667 407.433,316.667 "/>
<rect id="_x3C_Slice_x3E__3_" y="8.333" fill="none" width="500" height="483.333"/>
<rect id="_x3C_Slice_x3E__1_" y="8.333" fill="none" width="500" height="483.333"/>
</svg>
