<?xml version="1.0" encoding="utf-8"?>
<!-- Generator: Adobe Illustrator 16.0.4, SVG Export Plug-In . SVG Version: 6.00 Build 0)  -->
<!DOCTYPE svg PUBLIC "-//W3C//DTD SVG 1.1//EN" "http://www.w3.org/Graphics/SVG/1.1/DTD/svg11.dtd">
<svg version="1.1" id="Layer_1" xmlns="http://www.w3.org/2000/svg" xmlns:xlink="http://www.w3.org/1999/xlink" x="0px" y="0px"
	 width="500px" height="500px" viewBox="0 0 500 500" enable-background="new 0 0 500 500" xml:space="preserve">
<polygon fill="#FFFFFF" points="60.243,316.667 116.129,223.524 172.013,316.667 "/>
<g>
	<path fill="#E6E7E8" d="M285.308,226.91c0.273-0.477,0.947-0.868,1.497-0.868h65.743c0.55,0,0.786,0.396,0.525,0.88l-47.862,88.864
		c-0.261,0.484-0.925,0.881-1.475,0.881h-68.814c-0.55,0-0.776-0.391-0.503-0.868L285.308,226.91z"/>
</g>
<polygon fill="#FFFFFF" points="205.244,155.556 156.909,155.556 135.764,190.799 211.285,316.667 301.91,316.667 "/>
<polygon fill="#FFFFFF" points="354.059,226.042 288.808,226.042 343.183,316.667 408.434,316.667 "/>
</svg>
