<?xml version="1.0" encoding="utf-8"?>
<!-- Generator: Adobe Illustrator 16.0.4, SVG Export Plug-In . SVG Version: 6.00 Build 0)  -->
<!DOCTYPE svg PUBLIC "-//W3C//DTD SVG 1.1//EN" "http://www.w3.org/Graphics/SVG/1.1/DTD/svg11.dtd">
<svg version="1.1" id="Layer_1" xmlns="http://www.w3.org/2000/svg" xmlns:xlink="http://www.w3.org/1999/xlink" x="0px" y="0px"
	 width="125px" height="75px" viewBox="0 0 125 75" enable-background="new 0 0 125 75" xml:space="preserve">
<polygon fill="#FFFFFF" points="0.096,66.375 20.128,32.988 40.16,66.375 "/>
<g>
	<path fill="#E6E7E8" d="M80.451,34.759c0.273-0.477,0.947-0.868,1.496-0.868h22.283c0.551,0,0.787,0.396,0.525,0.88L88.209,65.495
		c-0.262,0.484-0.926,0.88-1.475,0.88H63.352c-0.55,0-0.777-0.391-0.503-0.868L80.451,34.759z"/>
</g>
<polygon fill="#FFFFFF" points="52.072,8.625 34.746,8.625 27.167,21.258 54.237,66.375 86.723,66.375 "/>
<polygon fill="#FFFFFF" points="105.414,33.891 82.025,33.891 101.516,66.375 124.904,66.375 "/>
</svg>
