<?xml version="1.0" encoding="utf-8"?>
<!-- Generator: Adobe Illustrator 16.0.4, SVG Export Plug-In . SVG Version: 6.00 Build 0)  -->
<!DOCTYPE svg PUBLIC "-//W3C//DTD SVG 1.1//EN" "http://www.w3.org/Graphics/SVG/1.1/DTD/svg11.dtd">
<svg version="1.1" id="Layer_1" xmlns="http://www.w3.org/2000/svg" xmlns:xlink="http://www.w3.org/1999/xlink" x="0px" y="0px"
	 width="500px" height="500px" viewBox="0 0 500 500" enable-background="new 0 0 500 500" xml:space="preserve">
<polygon fill="#FFFFFF" points="60.243,213.306 80.275,179.919 100.307,213.306 "/>
<g>
	<path fill="#E6E7E8" d="M140.598,181.689c0.273-0.477,0.947-0.868,1.497-0.868h22.283c0.55,0,0.787,0.396,0.526,0.88
		l-16.548,30.723c-0.261,0.484-0.924,0.88-1.474,0.88h-23.383c-0.55,0-0.776-0.391-0.503-0.868L140.598,181.689z"/>
</g>
<polygon fill="#FFFFFF" points="112.218,155.556 94.893,155.556 87.313,168.188 114.384,213.306 146.869,213.306 "/>
<polygon fill="#FFFFFF" points="165.561,180.822 142.172,180.822 161.663,213.306 185.051,213.306 "/>
</svg>
